# xmcd
#
# Track frame offsets: 
#        150
#        26685
#        50425
#        78305
#        102150
#        125010
#        138472
#        149035
#        174700
#        208582
#        231937
#        254825
#        286540
#        304470
#
# Disc length: 4429 seconds
#
# Revision: 0
# Processed by: cddbd v1.5.1PL2 Copyright (c) Steve Scherf et al.
# Submitted via: ExactAudioCopy v0.95a5
#
DISCID=d7114b0e
DTITLE=Magic Slim and The Teardrops - Zoo Bar Collection Vol 4 - Spider 
DTITLE=In My Stew
DYEAR=1998
DGENRE=Blues
TTITLE0=Changed
TTITLE1=Spider In My Stew
TTITLE2=Your Day Will Come
TTITLE3=The Moon Is Full
TTITLE4=Standin' On The Highway
TTITLE5=Stormy Monday-Kansas City-C.C. Rider
TTITLE6=Fanny's Blues
TTITLE7=Drink Muddy Water
TTITLE8=Walkin' Cane
TTITLE9=4:59 In The Morning
TTITLE10=Kansas City
TTITLE11=Since I Met You Baby
TTITLE12=Mojo Boogie
TTITLE13=The Blues Are All Right
EXTD=
EXTT0=
EXTT1=
EXTT2=
EXTT3=
EXTT4=
EXTT5=
EXTT6=
EXTT7=
EXTT8=
EXTT9=
EXTT10=
EXTT11=
EXTT12=
EXTT13=
PLAYORDER=
